# File created by Blade
# Date/Time:  Tue Jan 27 18:05:51 2015
#---------------------------------------------------------
:version 1.10
:name HOM
:units
  mass 1.0
  length 1.000000
  angle deg
:documentation
     Acclaim Skeleton File
:root
   axis xyz
   order TX TY TZ RX RY RZ
   position 0.000000 0.000000 0.000000
   orientation 0 0 0
:bonedata
   begin
      id 1
      name Spine_dum
      direction 0.000000 1.000000 0.000000
      length 5.195262
      axis 0.0 0.0 0.0 xyz
   end
   begin
      id 2
      name LeftUpLeg_dum
      direction 1.000000 0.000000 0.000000
      length 3.351363
      axis 0.0 0.0 0.0 xyz
   end
   begin
      id 3
      name RightUpLeg_dum
      direction -1.000000 0.000000 0.000000
      length 3.351363
      axis 0.0 0.0 0.0 xyz
   end
   begin
      id 4
      name Spine
      direction 0.000000 1.000000 0.000000
      length 0.000000
      axis 0.0 0.0 0.0 xyz
      dof rx ry rz
   end
   begin
      id 5
      name Spine_dum1
      direction 0.000000 1.000000 0.000000
      length 15.653875
      axis 0.0 0.0 0.0 xyz
   end
   begin
      id 6
      name Spine_dum2
      direction 0.000000 1.000000 0.000000
      length 10.329768
      axis 0.0 0.0 0.0 xyz
   end
   begin
      id 7
      name Spine_dum3
      direction 0.000000 1.000000 0.000000
      length 10.329768
      axis 0.0 0.0 0.0 xyz
   end
   begin
      id 8
      name Head
      direction 0.000000 1.000000 0.000000
      length 4.527550
      axis 0.0 0.0 0.0 xyz
      dof rx ry rz
   end
   begin
      id 9
      name LeftShoulder
      direction 1.000000 0.000000 0.000000
      length 6.996006
      axis 0.0 0.0 -90.0 xyz
      dof rx ry rz
   end
   begin
      id 10
      name LeftArm
      direction 1.000000 0.000000 0.000000
      length 10.209302
      axis 0.0 0.0 -90.0 xyz
      dof rx ry rz
   end
   begin
      id 11
      name LeftForeArm
      direction 1.000000 0.000000 0.000000
      length 8.563163
      axis 0.0 0.0 -90.0 xyz
      dof ry rz rx
   end
   begin
      id 12
      name LeftHand
      direction 0.000000 0.000000 0.000000
      length 0.000000
      axis 0.0 0.0 -90.0 xyz
      dof rx ry rz
   end
   begin
      id 13
      name LeftHand_dum1
      direction 0.000000 0.000000 0.000000
      length 0.000000
      axis 0.0 0.0 -90.0 xyz
   end
   begin
      id 14
      name LeftHand_dum2
      direction 1.000000 0.000000 0.000000
      length 3.937000
      axis 0.0 0.0 -90.0 xyz
   end
   begin
      id 15
      name LeftHandThumb1
      direction 0.000000 0.000000 1.000000
      length 3.937000
      axis 0.0 0.0 -90.0 xyz
      dof rx rz ry
   end
   begin
      id 16
      name RightShoulder
      direction -1.000000 0.000000 0.000000
      length 6.996006
      axis 0.0 0.0 90.0 xyz
      dof rx ry rz
   end
   begin
      id 17
      name RightArm
      direction -1.000000 0.000000 0.000000
      length 10.209302
      axis 0.0 0.0 90.0 xyz
      dof rx ry rz
   end
   begin
      id 18
      name RightForeArm
      direction -1.000000 0.000000 0.000000
      length 8.563163
      axis 0.0 0.0 90.0 xyz
      dof ry rz rx
   end
   begin
      id 19
      name RightHand
      direction 0.000000 0.000000 0.000000
      length 0.000000
      axis 0.0 0.0 90.0 xyz
      dof rx ry rz
   end
   begin
      id 20
      name RightHand_dum1
      direction 0.000000 0.000000 0.000000
      length 0.000000
      axis 0.0 0.0 90.0 xyz
   end
   begin
      id 21
      name RightHand_dum2
      direction -1.000000 0.000000 0.000000
      length 3.937000
      axis 0.0 0.0 90.0 xyz
   end
   begin
      id 22
      name RightHandThumb1
      direction 0.000000 0.000000 1.000000
      length 3.937000
      axis 0.0 0.0 90.0 xyz
      dof rx rz ry
   end
   begin
      id 23
      name LeftUpLeg
      direction 0.000000 -1.000000 0.000000
      length 16.346831
      axis 0.0 0.0 0.0 xyz
      dof rx ry rz
   end
   begin
      id 24
      name LeftLeg
      direction 0.000000 -1.000000 0.000000
      length 13.959795
      axis 0.0 0.0 0.0 xyz
      dof rx ry rz
   end
   begin
      id 25
      name LeftFoot
      direction 0.000000 -0.258819 0.965926
      length 5.165550
      axis 15.0 0.0 0.0 xyz
      dof rx ry rz
   end
   begin
      id 26
      name LeftToeBase
      direction 0.000000 0.000000 1.000000
      length 2.952750
      axis 0.0 0.0 0.0 xyz
      dof rx ry rz
   end
   begin
      id 27
      name RightUpLeg
      direction 0.000000 -1.000000 0.000000
      length 16.346831
      axis 0.0 0.0 0.0 xyz
      dof rx ry rz
   end
   begin
      id 28
      name RightLeg
      direction 0.000000 -1.000000 0.000000
      length 13.959795
      axis 0.0 0.0 0.0 xyz
      dof rx ry rz
   end
   begin
      id 29
      name RightFoot
      direction 0.000000 -0.258819 0.965926
      length 5.165550
      axis 15.0 0.0 0.0 xyz
      dof rx ry rz
   end
   begin
      id 30
      name RightToeBase
      direction 0.000000 0.000000 1.000000
      length 2.952750
      axis 0.0 0.0 0.0 xyz
      dof rx ry rz
   end
:hierarchy
   begin
      root Spine_dum LeftUpLeg_dum RightUpLeg_dum
      Spine_dum Spine
      LeftUpLeg_dum LeftUpLeg
      RightUpLeg_dum RightUpLeg
      Spine Spine_dum1 Spine_dum2 Spine_dum3
      Spine_dum1 Head
      Spine_dum2 LeftShoulder
      Spine_dum3 RightShoulder
      LeftShoulder LeftArm
      LeftArm LeftForeArm
      LeftForeArm LeftHand
      LeftHand LeftHand_dum1 LeftHand_dum2
      LeftHand_dum1 LeftHandThumb1
      RightShoulder RightArm
      RightArm RightForeArm
      RightForeArm RightHand
      RightHand RightHand_dum1 RightHand_dum2
      RightHand_dum1 RightHandThumb1
      LeftUpLeg LeftLeg
      LeftLeg LeftFoot
      LeftFoot LeftToeBase
      RightUpLeg RightLeg
      RightLeg RightFoot
      RightFoot RightToeBase
   end

# File created by Blade
# Date/Time:  Tue Jan 27 18:05:41 2015
# Frame Rate: 120.000 fps
#------------------------------------------------------
:FULLY-SPECIFIED
:DEGREES
293
root -1.318455 31.892844 -6.476372 6.254791 13.052696 4.354354
Spine -7.550490 0.561819 -1.044943
Head -2.334479 -12.694757 2.758184
LeftShoulder -11.499779 18.634441 7.433102
LeftArm 19.881682 33.249728 -77.165440
LeftForeArm -4.795514 -0.000000 15.662539
LeftHand -11.017596 0.000000 -3.792852
LeftHandThumb1 -26.253704 0.000000 33.147579
RightShoulder -1.340183 33.023732 -38.038003
RightArm 59.638202 27.315872 108.709414
RightForeArm 11.196414 -0.000000 104.987684
RightHand -9.557356 -0.000000 1.357895
RightHandThumb1 -24.326973 -0.000000 -32.862282
LeftUpLeg -2.300470 -4.184992 -1.620146
LeftLeg 1.378106 -0.000000 -0.000000
LeftFoot -15.956829 14.151622 -24.398360
LeftToeBase 8.568821 -0.000000 -0.000000
RightUpLeg 2.549265 -7.802345 -4.399411
RightLeg -3.796249 -0.000000 0.000000
RightFoot -15.945987 -16.055942 10.572482
RightToeBase 5.168164 -0.000000 -0.000000
294
root -1.322112 31.893295 -6.479889 6.265653 13.059456 4.352718
Spine -7.544844 0.530160 -1.044523
Head -2.325465 -12.647954 2.738756
LeftShoulder -11.485327 18.583964 7.416587
LeftArm 19.911756 33.484611 -77.203142
LeftForeArm -4.791313 -0.000000 15.692902
LeftHand -11.026960 -0.000000 -3.734479
LeftHandThumb1 -26.253704 0.000000 33.147579
RightShoulder -1.335320 32.963067 -38.012498
RightArm 59.630196 27.323875 108.691143
RightForeArm 11.363562 -0.000000 104.945585
RightHand -9.481448 -0.000000 1.233105
RightHandThumb1 -24.326973 -0.000000 -32.862282
LeftUpLeg -2.323037 -4.191022 -1.611588
LeftLeg 1.383156 -0.000000 -0.000000
LeftFoot -15.950748 14.155156 -24.412142
LeftToeBase 8.543137 -0.000000 -0.000000
RightUpLeg 2.538500 -7.766940 -4.388647
RightLeg -3.812516 -0.000000 0.000000
RightFoot -15.932417 -16.102496 10.574662
RightToeBase 5.178325 -0.000000 -0.000000
295
root -1.324773 31.893878 -6.483367 6.269899 13.062099 4.354158
Spine -7.529603 0.490638 -1.044240
Head -2.308211 -12.585525 2.716067
LeftShoulder -11.460636 18.536918 7.404908
LeftArm 19.923568 33.696005 -77.268800
LeftForeArm -4.796234 -0.000000 15.705740
LeftHand -10.934716 -0.000000 -3.916717
LeftHandThumb1 -26.253704 0.000000 33.147579
RightShoulder -1.336652 32.918984 -37.983205
RightArm 59.593384 27.304781 108.628074
RightForeArm 11.402512 -0.000000 104.912016
RightHand -9.571533 -0.000000 1.259130
RightHandThumb1 -24.326973 -0.000000 -32.862282
LeftUpLeg -2.341045 -4.196897 -1.607398
LeftLeg 1.398381 -0.000000 -0.000000
LeftFoot -15.951956 14.143045 -24.430372
LeftToeBase 8.576734 -0.000000 -0.000000
RightUpLeg 2.523785 -7.768625 -4.386353
RightLeg -3.803308 -0.000000 0.000000
RightFoot -15.930891 -16.090626 10.579027
RightToeBase 5.144305 -0.000000 -0.000000
296
root -1.327737 31.894698 -6.487217 6.279096 13.062688 4.353258
Spine -7.523027 0.463887 -1.047312
Head -2.293170 -12.538077 2.703954
LeftShoulder -11.439536 18.519595 7.394422
LeftArm 20.005842 33.961884 -77.300766
LeftForeArm -4.867289 -0.000000 15.729883
LeftHand -11.067941 0.000000 -3.885415
LeftHandThumb1 -26.253704 0.000000 33.147579
RightShoulder -1.343631 32.865241 -37.965544
RightArm 59.554218 27.299592 108.586809
RightForeArm 11.441372 -0.000000 104.881681
RightHand -9.621644 -0.000000 1.340473
RightHandThumb1 -24.326973 -0.000000 -32.862282
LeftUpLeg -2.360150 -4.237872 -1.599709
LeftLeg 1.401652 -0.000000 -0.000000
LeftFoot -15.955497 14.175825 -24.449339
LeftToeBase 8.561168 -0.000000 -0.000000
RightUpLeg 2.505248 -7.765479 -4.378133
RightLeg -3.803597 -0.000000 0.000000
RightFoot -15.923000 -16.104789 10.566565
RightToeBase 5.154247 -0.000000 -0.000000
297
root -1.331037 31.895190 -6.490467 6.281499 13.061987 4.351122
Spine -7.504278 0.417029 -1.050462
Head -2.290477 -12.453119 2.702887
LeftShoulder -11.428512 18.494197 7.394453
LeftArm 20.042784 34.188132 -77.388185
LeftForeArm -4.822725 0.000000 15.767368
LeftHand -10.993253 -0.000000 -3.962684
LeftHandThumb1 -26.253704 0.000000 33.147579
RightShoulder -1.343827 32.816454 -37.939620
RightArm 59.522585 27.284485 108.529441
RightForeArm 11.410358 0.000000 104.841247
RightHand -9.605866 -0.000000 1.335651
RightHandThumb1 -24.326973 -0.000000 -32.862282
LeftUpLeg -2.379447 -4.249995 -1.593656
LeftLeg 1.421766 -0.000000 -0.000000
LeftFoot -15.960062 14.200634 -24.439294
LeftToeBase 8.535591 -0.000000 -0.000000
RightUpLeg 2.493790 -7.745294 -4.370163
RightLeg -3.801946 -0.000000 0.000000
RightFoot -15.925182 -16.119833 10.571576
RightToeBase 5.185078 -0.000000 -0.000000
298
root -1.333409 31.895373 -6.491423 6.278069 13.086788 4.352674
Spine -7.489839 0.353799 -1.055604
Head -2.255646 -12.379242 2.709323
LeftShoulder -11.419482 18.498276 7.396574
LeftArm 20.130692 34.440176 -77.456720
LeftForeArm -4.878159 -0.000000 15.776342
LeftHand -10.995838 -0.000000 -4.177299
LeftHandThumb1 -26.253704 0.000000 33.147579
RightShoulder -1.331220 32.760883 -37.905681
RightArm 59.499374 27.276798 108.492886
RightForeArm 11.388589 -0.000000 104.798362
RightHand -9.581978 -0.000000 1.307469
RightHandThumb1 -24.326973 -0.000000 -32.862282
LeftUpLeg -2.379364 -4.323448 -1.587660
LeftLeg 1.421405 -0.000000 -0.000000
LeftFoot -15.972945 14.245582 -24.446837
LeftToeBase 8.556118 -0.000000 -0.000000
RightUpLeg 2.507695 -7.765748 -4.365483
RightLeg -3.817710 -0.000000 0.000000
RightFoot -15.905310 -16.139399 10.545865
RightToeBase 5.151743 -0.000000 -0.000000
299
root -1.336444 31.895743 -6.496616 6.276350 13.060030 4.349876
Spine -7.456473 0.355795 -1.064778
Head -2.272357 -12.320466 2.720096
LeftShoulder -11.366810 18.418038 7.412435
LeftArm 20.107017 34.695762 -77.579110
LeftForeArm -4.846297 -0.000000 15.851623
LeftHand -11.020331 -0.000000 -4.264410
LeftHandThumb1 -26.253704 0.000000 33.147579
RightShoulder -1.358222 32.708229 -37.891142
RightArm 59.471330 27.261416 108.440454
RightForeArm 11.436252 0.000000 104.745999
RightHand -9.506581 -0.000000 1.391477
RightHandThumb1 -24.326973 -0.000000 -32.862282
LeftUpLeg -2.392062 -4.305538 -1.585460
LeftLeg 1.429813 -0.000000 -0.000000
LeftFoot -15.974249 14.261846 -24.448733
LeftToeBase 8.520614 -0.000000 -0.000000
RightUpLeg 2.491040 -7.706688 -4.357923
RightLeg -3.815625 -0.000000 0.000000
RightFoot -15.912319 -16.174869 10.581848
RightToeBase 5.162317 -0.000000 -0.000000
300
root -1.339450 31.896262 -6.500047 6.278548 13.051408 4.344656
Spine -7.437329 0.309386 -1.066152
Head -2.270542 -12.237663 2.730134
LeftShoulder -11.375439 18.399358 7.417112
LeftArm 20.214996 35.018041 -77.643394
LeftForeArm -4.787178 -0.000000 15.831923
LeftHand -11.063531 -0.000000 -4.364226
LeftHandThumb1 -26.253704 0.000000 33.147579
RightShoulder -1.348934 32.694055 -37.857460
RightArm 59.413942 27.258382 108.358441
RightForeArm 11.592149 -0.000000 104.681437
RightHand -9.430042 -0.000000 1.227544
RightHandThumb1 -24.326973 -0.000000 -32.862282
LeftUpLeg -2.402864 -4.344602 -1.576524
LeftLeg 1.432947 -0.000000 -0.000000
LeftFoot -15.990696 14.307920 -24.468384
LeftToeBase 8.531762 -0.000000 -0.000000
RightUpLeg 2.479593 -7.713044 -4.347449
RightLeg -3.819710 -0.000000 0.000000
RightFoot -15.895529 -16.165306 10.566714
RightToeBase 5.189869 -0.000000 -0.000000
301
root -1.341394 31.896771 -6.502642 6.272296 13.028928 4.344496
Spine -7.412159 0.303254 -1.076545
Head -2.262276 -12.197314 2.744626
LeftShoulder -11.347929 18.402703 7.420862
LeftArm 20.322340 35.307936 -77.707302
LeftForeArm -4.726571 -0.000000 15.871349
LeftHand -11.172897 -0.000000 -4.383109
LeftHandThumb1 -26.253704 0.000000 33.147579
RightShoulder -1.362283 32.636240 -37.828666
RightArm 59.388831 27.233771 108.287925
RightForeArm 11.582453 0.000000 104.652489
RightHand -9.485782 -0.000000 1.446443
RightHandThumb1 -24.326973 -0.000000 -32.862282
LeftUpLeg -2.396527 -4.345829 -1.576492
LeftLeg 1.424287 -0.000000 -0.000000
LeftFoot -15.979809 14.340987 -24.461866
LeftToeBase 8.526546 -0.000000 -0.000000
RightUpLeg 2.478346 -7.688636 -4.347038
RightLeg -3.822348 -0.000000 0.000000
RightFoot -15.882769 -16.177532 10.535819
RightToeBase 5.155876 -0.000000 -0.000000
302
root -1.344232 31.897250 -6.506300 6.274682 13.007716 4.341628
Spine -7.397583 0.275220 -1.081676
Head -2.243898 -12.124762 2.757803
LeftShoulder -11.325251 18.348889 7.433028
LeftArm 20.343977 35.600854 -77.811097
LeftForeArm -4.765196 -0.000000 15.926203
LeftHand -11.129868 0.000000 -4.515193
LeftHandThumb1 -26.253704 0.000000 33.147579
RightShoulder -1.352688 32.599698 -37.798272
RightArm 59.359931 27.212190 108.232466
RightForeArm 11.595647 -0.000000 104.616863
RightHand -9.569594 0.000000 1.356221
RightHandThumb1 -24.326973 -0.000000 -32.862282
LeftUpLeg -2.403633 -4.365319 -1.571071
LeftLeg 1.418922 -0.000000 -0.000000
LeftFoot -15.992709 14.376943 -24.465284
LeftToeBase 8.528005 -0.000000 -0.000000
RightUpLeg 2.465714 -7.692121 -4.340564
RightLeg -3.830316 -0.000000 0.000000
RightFoot -15.861041 -16.147166 10.583735
RightToeBase 5.089551 -0.000000 -0.000000
303
root -1.346306 31.897694 -6.509133 6.277768 12.979530 4.339709
Spine -7.387898 0.267602 -1.086747
Head -2.229274 -12.101518 2.769602
LeftShoulder -11.308210 18.344426 7.434335
LeftArm 20.466703 35.898502 -77.863870
LeftForeArm -4.742797 -0.000000 15.905295
LeftHand -11.080984 -0.000000 -4.627675
LeftHandThumb1 -26.253704 0.000000 33.147579
RightShoulder -1.352374 32.555124 -37.776142
RightArm 59.339964 27.180363 108.206389
RightForeArm 11.499000 -0.000000 104.588117
RightHand -9.706170 -0.000000 1.211004
RightHandThumb1 -24.326973 -0.000000 -32.862282
LeftUpLeg -2.412048 -4.357498 -1.570031
LeftLeg 1.423040 -0.000000 -0.000000
LeftFoot -15.991140 14.406908 -24.449201
LeftToeBase 8.525812 -0.000000 -0.000000
RightUpLeg 2.456168 -7.686512 -4.336124
RightLeg -3.843466 -0.000000 0.000000
RightFoot -15.842656 -16.157929 10.516577
RightToeBase 5.155646 -0.000000 -0.000000
